<svg xmlns="http://www.w3.org/2000/svg" viewBox="0 0 800 600">
  <title>Untitled-2</title>
  <g id="Layer_4" data-name="Layer 4">
    <rect x="697.85" y="162.89" width="10" height="10" transform="translate(1405.69 335.79) rotate(180)" style="fill: #fff"/>
    <rect x="535.92" y="200.37" width="10" height="10" transform="translate(1081.84 410.74) rotate(180)" style="fill: #fff"/>
    <rect x="345" y="258.35" width="10" height="10" transform="translate(700 526.71) rotate(-180)" style="fill: #fff"/>
    <rect x="250.95" y="293" width="10" height="10" transform="translate(511.91 596) rotate(180)" style="fill: #fff"/>
    <rect x="503.39" y="336.13" width="10" height="10" transform="translate(1016.78 682.27) rotate(180)" style="fill: #fff"/>
    <rect x="354.19" y="475.43" width="10" height="10" transform="translate(718.38 960.87) rotate(180)" style="fill: #fff"/>
    <rect x="54.38" y="475.43" width="10" height="10" transform="translate(118.76 960.87) rotate(180)" style="fill: #fff"/>
    <rect x="450.36" y="143.09" width="10" height="10" transform="translate(910.72 296.19) rotate(180)" style="fill: #fff"/>
    <rect x="235.4" y="162.89" width="10" height="10" transform="translate(480.8 335.79) rotate(180)" style="fill: #fff"/>
    <rect x="409.35" y="318.46" width="10" height="10" transform="translate(828.69 646.91) rotate(180)" style="fill: #fff"/>
    <rect x="134.28" y="355.93" width="10" height="10" transform="translate(278.56 721.87) rotate(180)" style="fill: #fff"/>
    <rect x="330.86" y="159.36" width="10" height="10" transform="translate(671.71 328.72) rotate(180)" style="fill: #fff"/>
    <rect x="755.12" y="307.85" width="10" height="10" transform="translate(1520.24 625.7) rotate(180)" style="fill: #fff"/>
    <rect x="680.17" y="432.3" width="10" height="10" transform="translate(1370.34 874.6) rotate(180)" style="fill: #fff"/>
    <rect x="409.35" y="554.63" width="10" height="10" transform="translate(828.69 1119.26) rotate(180)" style="fill: #fff"/>
    <rect x="549.35" y="533.42" width="10" height="10" transform="translate(1108.71 1076.84) rotate(180)" style="fill: #fff"/>
    <rect x="603.8" y="111.27" width="10" height="10" transform="translate(1217.6 232.55) rotate(180)" style="fill: #fff"/>
    <rect x="409.35" y="20.06" width="10" height="10" transform="translate(828.69 50.12) rotate(180)" style="fill: #fff"/>
    <rect x="615.11" y="307.85" width="10" height="10" transform="translate(1240.23 625.7) rotate(180)" style="fill: #fff"/>
    <rect x="255.2" y="459.88" width="10" height="10" transform="translate(520.39 929.76) rotate(180)" style="fill: #fff"/>
    <rect x="474.4" y="441.49" width="10" height="10" transform="translate(958.8 892.99) rotate(180)" style="fill: #fff"/>
    <rect x="573.39" y="441.49" width="10" height="10" transform="translate(1156.79 892.99) rotate(180)" style="fill: #fff"/>
    <rect x="750.88" y="136.73" width="10" height="10" transform="translate(1511.76 283.46) rotate(180)" style="fill: #fff"/>
  </g>
</svg>
