<svg xmlns="http://www.w3.org/2000/svg" viewBox="0 0 800 600">
  <title>Untitled-2</title>
  <g id="Layer_7" data-name="Layer 7">
    <rect x="395" y="493.5" width="10" height="10" transform="translate(-235.34 428.85) rotate(-45)" style="fill: #fff"/>
    <rect x="489" y="317.5" width="10" height="10" transform="translate(-83.35 443.77) rotate(-45)" style="fill: #fff"/>
    <rect x="531" y="226.5" width="10" height="10" transform="translate(-6.7 446.81) rotate(-45)" style="fill: #fff"/>
    <rect x="322" y="374.5" width="10" height="10" transform="translate(-172.57 342.38) rotate(-45)" style="fill: #fff"/>
    <rect x="329" y="170.5" width="10" height="10" transform="translate(-26.27 287.58) rotate(-45)" style="fill: #fff"/>
    <rect x="496" y="473.5" width="10" height="10" transform="translate(-191.61 494.41) rotate(-45)" style="fill: #fff"/>
    <rect x="634" y="307.5" width="10" height="10" transform="translate(-33.81 543.37) rotate(-45)" style="fill: #fff"/>
    <rect x="401" y="320.5" width="10" height="10" transform="translate(-111.25 382.42) rotate(-45)" style="fill: #fff"/>
    <rect x="569" y="99.5" width="10" height="10" transform="translate(94.23 436.49) rotate(-45)" style="fill: #fff"/>
    <rect x="569" y="377.5" width="10" height="10" transform="translate(-102.35 517.91) rotate(-45)" style="fill: #fff"/>
    <rect x="164" y="572.5" width="10" height="10" transform="translate(-358.86 288.65) rotate(-45)" style="fill: #fff"/>
    <rect x="129" y="431.5" width="10" height="10" transform="translate(-269.4 222.6) rotate(-45)" style="fill: #fff"/>
    <rect x="234" y="153.5" width="10" height="10" transform="translate(-42.07 215.42) rotate(-45)" style="fill: #fff"/>
    <rect x="129" y="163.5" width="10" height="10" transform="translate(-79.9 144.1) rotate(-45)" style="fill: #fff"/>
    <rect x="150" y="267.5" width="10" height="10" transform="translate(-147.29 189.41) rotate(-45)" style="fill: #fff"/>
    <rect x="612" y="531.5" width="10" height="10" transform="translate(-198.65 593.42) rotate(-45)" style="fill: #fff"/>
    <rect x="263" y="473.5" width="10" height="10" transform="translate(-259.86 329.65) rotate(-45)" style="fill: #fff"/>
    <rect x="410" y="111.5" width="10" height="10" transform="translate(39.17 327.57) rotate(-45)" style="fill: #fff"/>
    <rect x="268" y="279.5" width="10" height="10" transform="translate(-121.21 276.37) rotate(-45)" style="fill: #fff"/>
    <rect x="171" y="52.5" width="10" height="10" transform="translate(10.89 141.29) rotate(-45)" style="fill: #fff"/>
    <rect x="198" y="349.5" width="10" height="10" transform="translate(-191.21 247.37) rotate(-45)" style="fill: #fff"/>
  </g>
</svg>
