<svg xmlns="http://www.w3.org/2000/svg" viewBox="0 0 800 600">
  <title>Untitled-2</title>
  <g id="Layer_3" data-name="Layer 3">
    <rect x="502.5" y="1" width="10" height="10" transform="translate(870.6 -348.61) rotate(135)" style="fill: #fff"/>
    <rect x="414.5" y="142" width="10" height="10" transform="translate(820.08 -45.69) rotate(135)" style="fill: #fff"/>
    <rect x="320.5" y="318" width="10" height="10" transform="translate(784.06 321.23) rotate(135)" style="fill: #fff"/>
    <rect x="278.5" y="409" width="10" height="10" transform="translate(776.71 506.28) rotate(135)" style="fill: #fff"/>
    <rect x="487.5" y="261" width="10" height="10" transform="translate(1028.84 105.84) rotate(135)" style="fill: #fff"/>
    <rect x="480.5" y="465" width="10" height="10" transform="translate(1161.14 459.04) rotate(135)" style="fill: #fff"/>
    <rect x="313.5" y="162" width="10" height="10" transform="translate(661.8 59.87) rotate(135)" style="fill: #fff"/>
    <rect x="175.5" y="328" width="10" height="10" transform="translate(543.6 440.83) rotate(135)" style="fill: #fff"/>
    <rect x="408.5" y="315" width="10" height="10" transform="translate(932.16 253.89) rotate(135)" style="fill: #fff"/>
    <rect x="240.5" y="536" width="10" height="10" transform="translate(801.64 749.95) rotate(135)" style="fill: #fff"/>
    <rect x="240.5" y="258" width="10" height="10" transform="translate(605.06 275.37) rotate(135)" style="fill: #fff"/>
    <rect x="645.5" y="63" width="10" height="10" transform="translate(1158.56 -343.89) rotate(135)" style="fill: #fff"/>
    <rect x="680.5" y="204" width="10" height="10" transform="translate(1318.01 -127.94) rotate(135)" style="fill: #fff"/>
    <rect x="575.5" y="482" width="10" height="10" transform="translate(1335.34 420.89) rotate(135)" style="fill: #fff"/>
    <rect x="680.5" y="472" width="10" height="10" transform="translate(1507.51 329.57) rotate(135)" style="fill: #fff"/>
    <rect x="659.5" y="368" width="10" height="10" transform="translate(1398.12 166.88) rotate(135)" style="fill: #fff"/>
    <rect x="399.5" y="31" width="10" height="10" transform="translate(715.98 -224.57) rotate(135)" style="fill: #fff"/>
    <rect x="197.5" y="104" width="10" height="10" transform="translate(422.76 42.89) rotate(135)" style="fill: #fff"/>
    <rect x="546.5" y="162" width="10" height="10" transform="translate(1059.56 -104.88) rotate(135)" style="fill: #fff"/>
    <rect x="399.5" y="524" width="10" height="10" transform="translate(1064.58 617.03) rotate(135)" style="fill: #fff"/>
    <rect x="541.5" y="356" width="10" height="10" transform="translate(1188.2 229.83) rotate(135)" style="fill: #fff"/>
    <rect x="638.5" y="583" width="10" height="10" transform="translate(1514.3 548.76) rotate(135)" style="fill: #fff"/>
    <rect x="611.5" y="286" width="10" height="10" transform="translate(1258.2 60.84) rotate(135)" style="fill: #fff"/>
  </g>
</svg>
