<svg xmlns="http://www.w3.org/2000/svg" viewBox="0 0 800 600">
  <title>Untitled-2</title>
  <g id="Layer_5" data-name="Layer 5">
    <rect x="721.5" y="415.5" width="10" height="10" transform="translate(942.87 1231.55) rotate(-135)" style="fill: #fff"/>
    <rect x="580.5" y="327.5" width="10" height="10" transform="translate(764.4 981.62) rotate(-135)" style="fill: #fff"/>
    <rect x="404.5" y="233.5" width="10" height="10" transform="translate(530.42 696.71) rotate(-135)" style="fill: #fff"/>
    <rect x="313.5" y="191.5" width="10" height="10" transform="translate(404.77 560.66) rotate(-135)" style="fill: #fff"/>
    <rect x="461.5" y="400.5" width="10" height="10" transform="translate(509.63 1022.1) rotate(-135)" style="fill: #fff"/>
    <rect x="257.5" y="393.5" width="10" height="10" transform="translate(166.33 865.9) rotate(-135)" style="fill: #fff"/>
    <rect x="45.5" y="181.5" width="10" height="10" transform="translate(-45.67 354.08) rotate(-135)" style="fill: #fff"/>
    <rect x="560.5" y="226.5" width="10" height="10" transform="translate(801.67 795.06) rotate(-135)" style="fill: #fff"/>
    <rect x="394.5" y="88.5" width="10" height="10" transform="translate(615.87 442.1) rotate(-135)" style="fill: #fff"/>
    <rect x="407.5" y="321.5" width="10" height="10" transform="translate(473.31 849.05) rotate(-135)" style="fill: #fff"/>
    <rect x="186.5" y="153.5" width="10" height="10" transform="translate(214.83 405.99) rotate(-135)" style="fill: #fff"/>
    <rect x="464.5" y="153.5" width="10" height="10" transform="translate(689.41 602.56) rotate(-135)" style="fill: #fff"/>
    <rect x="659.5" y="558.5" width="10" height="10" transform="translate(735.92 1431.83) rotate(-135)" style="fill: #fff"/>
    <rect x="240.5" y="488.5" width="10" height="10" transform="translate(70.14 1016.05) rotate(-135)" style="fill: #fff"/>
    <rect x="56.5" y="435.5" width="10" height="10" transform="translate(-206.49 795.47) rotate(-135)" style="fill: #fff"/>
    <rect x="354.5" y="572.5" width="10" height="10" transform="translate(205.35 1240.06) rotate(-135)" style="fill: #fff"/>
    <rect x="691.5" y="312.5" width="10" height="10" transform="translate(964.49 1034.51) rotate(-135)" style="fill: #fff"/>
    <rect x="735.5" y="149.5" width="10" height="10" transform="translate(1154.86 787.36) rotate(-135)" style="fill: #fff"/>
    <rect x="618.5" y="110.5" width="10" height="10" transform="translate(982.71 638.05) rotate(-135)" style="fill: #fff"/>
    <rect x="560.5" y="459.5" width="10" height="10" transform="translate(636.92 1192.82) rotate(-135)" style="fill: #fff"/>
    <rect x="198.5" y="312.5" width="10" height="10" transform="translate(122.89 685.9) rotate(-135)" style="fill: #fff"/>
    <rect x="366.5" y="454.5" width="10" height="10" transform="translate(309.27 1047.11) rotate(-135)" style="fill: #fff"/>
    <rect x="139.5" y="551.5" width="10" height="10" transform="translate(-146.83 1052.18) rotate(-135)" style="fill: #fff"/>
    <rect x="436.5" y="524.5" width="10" height="10" transform="translate(379.27 1216.1) rotate(-135)" style="fill: #fff"/>
    <rect x="766.5" y="180.5" width="10" height="10" transform="translate(1185.86 862.2) rotate(-135)" style="fill: #fff"/>
    <rect x="777.5" y="434.5" width="10" height="10" transform="translate(1025.04 1303.58) rotate(-135)" style="fill: #fff"/>
  </g>
</svg>
