<svg xmlns="http://www.w3.org/2000/svg" viewBox="0 0 800 600">
  <title>Untitled-2</title>
  <g id="Layer_2" data-name="Layer 2">
    <rect x="249.89" y="24.65" width="10" height="10" transform="translate(284.55 -225.24) rotate(90)" style="fill: #fff"/>
    <rect x="287.37" y="186.58" width="10" height="10" transform="translate(483.95 -100.79) rotate(90)" style="fill: #fff"/>
    <rect x="345.35" y="377.5" width="10" height="10" transform="translate(732.85 32.15) rotate(90)" style="fill: #fff"/>
    <rect x="380" y="471.55" width="10" height="10" transform="translate(861.55 91.54) rotate(90)" style="fill: #fff"/>
    <rect x="423.13" y="219.11" width="10" height="10" transform="translate(652.24 -204.03) rotate(90)" style="fill: #fff"/>
    <rect x="562.43" y="368.31" width="10" height="10" transform="translate(940.74 -194.13) rotate(90)" style="fill: #fff"/>
    <rect x="230.09" y="272.14" width="10" height="10" transform="translate(512.24 42.05) rotate(90)" style="fill: #fff"/>
    <rect x="249.89" y="487.1" width="10" height="10" transform="translate(747 237.21) rotate(90)" style="fill: #fff"/>
    <rect x="405.46" y="313.15" width="10" height="10" transform="translate(728.61 -92.3) rotate(90)" style="fill: #fff"/>
    <rect x="442.93" y="588.22" width="10" height="10" transform="translate(1041.15 145.28) rotate(90)" style="fill: #fff"/>
    <rect x="246.36" y="391.64" width="10" height="10" transform="translate(648 145.28) rotate(90)" style="fill: #fff"/>
    <rect x="519.3" y="42.33" width="10" height="10" transform="translate(571.63 -476.97) rotate(90)" style="fill: #fff"/>
    <rect x="641.63" y="313.15" width="10" height="10" transform="translate(964.78 -328.48) rotate(90)" style="fill: #fff"/>
    <rect x="734.26" y="480.74" width="10" height="10" transform="translate(1225 -253.52) rotate(90)" style="fill: #fff"/>
    <rect x="708.81" y="231.84" width="10" height="10" transform="translate(950.64 -476.97) rotate(90)" style="fill: #fff"/>
    <rect x="620.42" y="173.15" width="10" height="10" transform="translate(803.56 -447.27) rotate(90)" style="fill: #fff"/>
    <rect x="198.27" y="118.7" width="10" height="10" transform="translate(326.97 -79.58) rotate(90)" style="fill: #fff"/>
    <rect x="51.9" y="202.85" width="10" height="10" transform="translate(264.75 150.94) rotate(90)" style="fill: #fff"/>
    <rect x="107.06" y="313.15" width="10" height="10" transform="translate(430.21 206.1) rotate(90)" style="fill: #fff"/>
    <rect x="394.85" y="107.39" width="10" height="10" transform="translate(512.24 -287.46) rotate(90)" style="fill: #fff"/>
    <rect x="546.88" y="467.3" width="10" height="10" transform="translate(1024.18 -79.58) rotate(90)" style="fill: #fff"/>
    <rect x="528.49" y="248.1" width="10" height="10" transform="translate(786.59 -280.39) rotate(90)" style="fill: #fff"/>
    <rect x="757.6" y="340.02" width="10" height="10" transform="translate(1107.62 -417.57) rotate(90)" style="fill: #fff"/>
    <rect x="528.49" y="149.11" width="10" height="10" transform="translate(687.6 -379.39) rotate(90)" style="fill: #fff"/>
    <rect x="51.9" y="159" width="10" height="10" transform="translate(220.91 107.1) rotate(90)" style="fill: #fff"/>
  </g>
</svg>
