<svg xmlns="http://www.w3.org/2000/svg" viewBox="0 0 800 600">
  <title>Untitled-2</title>
  <g id="Layer_6" data-name="Layer 6">
    <rect x="522.13" y="448.92" width="10" height="10" transform="translate(73.21 981.05) rotate(-90)" style="fill: #fff"/>
    <rect x="464.15" y="258" width="10" height="10" transform="translate(206.15 732.15) rotate(-90)" style="fill: #fff"/>
    <rect x="429.5" y="163.95" width="10" height="10" transform="translate(265.54 603.45) rotate(-90)" style="fill: #fff"/>
    <rect x="386.37" y="416.39" width="10" height="10" transform="translate(-30.03 812.76) rotate(-90)" style="fill: #fff"/>
    <rect x="247.07" y="267.19" width="10" height="10" transform="translate(-20.13 524.26) rotate(-90)" style="fill: #fff"/>
    <rect x="579.41" y="363.36" width="10" height="10" transform="translate(216.05 952.76) rotate(-90)" style="fill: #fff"/>
    <rect x="559.61" y="148.4" width="10" height="10" transform="translate(411.21 718) rotate(-90)" style="fill: #fff"/>
    <rect x="404.04" y="322.35" width="10" height="10" transform="translate(81.7 736.39) rotate(-90)" style="fill: #fff"/>
    <rect x="366.57" y="47.28" width="10" height="10" transform="translate(319.28 423.85) rotate(-90)" style="fill: #fff"/>
    <rect x="563.14" y="243.86" width="10" height="10" transform="translate(319.28 817) rotate(-90)" style="fill: #fff"/>
    <rect x="290.2" y="593.17" width="10" height="10" transform="translate(-302.97 893.37) rotate(-90)" style="fill: #fff"/>
    <rect x="167.87" y="322.35" width="10" height="10" transform="translate(-154.48 500.22) rotate(-90)" style="fill: #fff"/>
    <rect x="75.24" y="154.76" width="10" height="10" transform="translate(-79.52 240) rotate(-90)" style="fill: #fff"/>
    <rect x="100.69" y="403.66" width="10" height="10" transform="translate(-302.97 514.36) rotate(-90)" style="fill: #fff"/>
    <rect x="189.08" y="462.35" width="10" height="10" transform="translate(-273.27 661.44) rotate(-90)" style="fill: #fff"/>
    <rect x="611.23" y="516.8" width="10" height="10" transform="translate(94.42 1138.03) rotate(-90)" style="fill: #fff"/>
    <rect x="757.6" y="432.65" width="10" height="10" transform="translate(324.94 1200.25) rotate(-90)" style="fill: #fff"/>
    <rect x="702.44" y="322.35" width="10" height="10" transform="translate(380.1 1034.79) rotate(-90)" style="fill: #fff"/>
    <rect x="414.65" y="528.11" width="10" height="10" transform="translate(-113.46 952.76) rotate(-90)" style="fill: #fff"/>
    <rect x="262.62" y="168.2" width="10" height="10" transform="translate(94.42 440.82) rotate(-90)" style="fill: #fff"/>
    <rect x="281.01" y="387.4" width="10" height="10" transform="translate(-106.39 678.41) rotate(-90)" style="fill: #fff"/>
    <rect x="51.9" y="295.48" width="10" height="10" transform="translate(-243.57 357.38) rotate(-90)" style="fill: #fff"/>
    <rect x="281.01" y="486.39" width="10" height="10" transform="translate(-205.39 777.4) rotate(-90)" style="fill: #fff"/>
    <rect x="757.6" y="476.5" width="10" height="10" transform="translate(281.1 1244.09) rotate(-90)" style="fill: #fff"/>
  </g>
</svg>
