<svg xmlns="http://www.w3.org/2000/svg" viewBox="0 0 800 600">
  <title>Untitled-2</title>
  <g id="Layer_1" data-name="Layer 1">
    <rect x="88" y="220" width="10" height="10" transform="translate(186.34 0.14) rotate(45)" style="fill: #fff"/>
    <rect x="229" y="308" width="10" height="10" transform="translate(289.86 -73.79) rotate(45)" style="fill: #fff"/>
    <rect x="405" y="402" width="10" height="10" transform="translate(407.88 -170.71) rotate(45)" style="fill: #fff"/>
    <rect x="496" y="444" width="10" height="10" transform="translate(464.23 -222.75) rotate(45)" style="fill: #fff"/>
    <rect x="348" y="235" width="10" height="10" transform="translate(273.1 -179.31) rotate(45)" style="fill: #fff"/>
    <rect x="552" y="242" width="10" height="10" transform="translate(337.8 -321.51) rotate(45)" style="fill: #fff"/>
    <rect x="764" y="454" width="10" height="10" transform="translate(549.8 -409.33) rotate(45)" style="fill: #fff"/>
    <rect x="249" y="409" width="10" height="10" transform="translate(367.14 -58.35) rotate(45)" style="fill: #fff"/>
    <rect x="415" y="547" width="10" height="10" transform="translate(513.34 -135.31) rotate(45)" style="fill: #fff"/>
    <rect x="402" y="314" width="10" height="10" transform="translate(344.77 -194.36) rotate(45)" style="fill: #fff"/>
    <rect x="623" y="482" width="10" height="10" transform="translate(528.3 -301.42) rotate(45)" style="fill: #fff"/>
    <rect x="345" y="482" width="10" height="10" transform="translate(446.87 -104.85) rotate(45)" style="fill: #fff"/>
    <rect x="150" y="77" width="10" height="10" transform="translate(103.38 -85.58) rotate(45)" style="fill: #fff"/>
    <rect x="291" y="42" width="10" height="10" transform="translate(119.93 -195.54) rotate(45)" style="fill: #fff"/>
    <rect x="569" y="147" width="10" height="10" transform="translate(275.6 -361.36) rotate(45)" style="fill: #fff"/>
    <rect x="753" y="200" width="10" height="10" transform="translate(366.97 -475.94) rotate(45)" style="fill: #fff"/>
    <rect x="559" y="42" width="10" height="10" transform="translate(198.43 -385.04) rotate(45)" style="fill: #fff"/>
    <rect x="455" y="63" width="10" height="10" transform="translate(182.81 -305.35) rotate(45)" style="fill: #fff"/>
    <rect x="118" y="323" width="10" height="10" transform="translate(267.96 9.09) rotate(45)" style="fill: #fff"/>
    <rect x="74" y="486" width="10" height="10" transform="translate(370.33 87.95) rotate(45)" style="fill: #fff"/>
    <rect x="191" y="525" width="10" height="10" transform="translate(432.17 16.64) rotate(45)" style="fill: #fff"/>
    <rect x="249" y="176" width="10" height="10" transform="translate(202.38 -126.59) rotate(45)" style="fill: #fff"/>
    <rect x="611" y="323" width="10" height="10" transform="translate(412.35 -339.51) rotate(45)" style="fill: #fff"/>
    <rect x="443" y="181" width="10" height="10" transform="translate(262.74 -262.31) rotate(45)" style="fill: #fff"/>
    <rect x="670" y="84" width="10" height="10" transform="translate(260.64 -451.23) rotate(45)" style="fill: #fff"/>
    <rect x="373" y="111" width="10" height="10" transform="translate(192.74 -233.31) rotate(45)" style="fill: #fff"/>
    <rect x="43" y="455" width="10" height="10" transform="translate(339.33 100.79) rotate(45)" style="fill: #fff"/>
    <rect x="32" y="201" width="10" height="10" transform="translate(156.5 34.17) rotate(45)" style="fill: #fff"/>
  </g>
</svg>
